<svg xmlns="http://www.w3.org/2000/svg" xmlns:xlink="http://www.w3.org/1999/xlink" width="155" height="335" viewBox="0 0 155 335">
  <defs>
    <clipPath id="clip-path">
      <rect id="사각형_2482" data-name="사각형 2482" width="155" height="335" fill="#fff" stroke="#707070" stroke-width="1"/>
    </clipPath>
  </defs>
  <g id="그룹_3498" data-name="그룹 3498" transform="translate(-5091 351)">
    <g id="마스크_그룹_11" data-name="마스크 그룹 11" transform="translate(5091 -351)" clip-path="url(#clip-path)">
      <g id="패스_1285" data-name="패스 1285" transform="translate(7.954 291.128)" fill="none">
        <path d="M10.341,0H56.078a10.341,10.341,0,0,1,0,20.681H10.341A10.341,10.341,0,0,1,10.341,0Z" stroke="none"/>
        <path d="M 10.34062194824219 1.000003814697266 C 5.190181732177734 1.000003814697266 1 5.190183639526367 1 10.34062385559082 C 1 15.49106407165527 5.190181732177734 19.68124389648438 10.34062194824219 19.68124389648438 L 56.0780029296875 19.68124389648438 C 61.22844314575195 19.68124389648438 65.41862487792969 15.49106407165527 65.41862487792969 10.34062385559082 C 65.41862487792969 5.190183639526367 61.22844314575195 1.000003814697266 56.0780029296875 1.000003814697266 L 10.34062194824219 1.000003814697266 M 10.34062194824219 3.814697265625e-06 L 56.0780029296875 3.814697265625e-06 C 61.78897094726562 3.814697265625e-06 66.41862487792969 4.629653930664062 66.41862487792969 10.34062385559082 C 66.41862487792969 16.05159378051758 61.78897094726562 20.68124389648438 56.0780029296875 20.68124389648438 L 10.34062194824219 20.68124389648438 C 4.629653930664062 20.68124389648438 0 16.05159378051758 0 10.34062385559082 C 0 4.629653930664062 4.629653930664062 3.814697265625e-06 10.34062194824219 3.814697265625e-06 Z" stroke="none" fill="#000"/>
      </g>
      <rect id="사각형_1723" data-name="사각형 1723" width="67" height="21" rx="10.5" transform="translate(80 291)"/>
      <text id="거절하기" transform="translate(39 303)" font-size="5" font-family="AppleSDGothicNeo-Bold, Apple SD Gothic Neo" font-weight="700"><tspan x="-8.65" y="0">거절하기</tspan></text>
      <text id="전화받기" transform="translate(112 303)" fill="#fff" font-size="5" font-family="AppleSDGothicNeo-Bold, Apple SD Gothic Neo" font-weight="700"><tspan x="-8.65" y="0">전화받기</tspan></text>
      <text id="전화오는중_" data-name="전화오는중…" transform="translate(74 231)" font-size="9" font-family="AppleSDGothicNeo-Bold, Apple SD Gothic Neo" font-weight="700"><tspan x="-23.962" y="0">전화오는중</tspan><tspan y="0" font-family="Helvetica-Bold, Helvetica">…</tspan></text>
      <text id="BMW_X5_차량에서_걸려오는_전화입니다_안심하세요_전화번호는_노출되지않습니다" data-name="BMW X5 차량에서 걸려오는 전화입니다
안심하세요, 전화번호는 노출되지않습니다" transform="translate(73 246)" font-size="5" font-family="Helvetica" letter-spacing="-0.03em"><tspan x="-38.408" y="0">BMW X5 </tspan><tspan y="0" font-family="AppleSDGothicNeo-Regular, Apple SD Gothic Neo">차량에서</tspan><tspan y="0"> </tspan><tspan y="0" font-family="AppleSDGothicNeo-Regular, Apple SD Gothic Neo">걸려오는</tspan><tspan y="0"> </tspan><tspan y="0" font-family="AppleSDGothicNeo-Regular, Apple SD Gothic Neo">전화입니다</tspan><tspan y="0"></tspan><tspan font-family="AppleSDGothicNeo-Regular, Apple SD Gothic Neo"><tspan x="-39.509" y="8">안심하세요</tspan><tspan y="8" font-family="Helvetica">, </tspan><tspan y="8">전화번호는</tspan><tspan y="8" font-family="Helvetica"> </tspan><tspan y="8">노출되지않습니다</tspan></tspan></text>
      <g id="그룹_1522" data-name="그룹 1522" transform="translate(14.333 77.177)">
        <ellipse id="타원_19" data-name="타원 19" cx="60.5" cy="59.5" rx="60.5" ry="59.5" transform="translate(-0.333 -0.177)" fill="#eef2f5" opacity="0.269"/>
        <ellipse id="타원_18" data-name="타원 18" cx="50" cy="49.5" rx="50" ry="49.5" transform="translate(10.667 9.823)" fill="#f1f1f3" opacity="0.5"/>
        <ellipse id="타원_17" data-name="타원 17" cx="40" cy="39.5" rx="40" ry="39.5" transform="translate(20.667 19.823)" fill="#ecebf2" opacity="0.513"/>
        <ellipse id="타원_16" data-name="타원 16" cx="30" cy="29.5" rx="30" ry="29.5" transform="translate(30.667 29.823)" fill="#e3e3e7" opacity="0.698"/>
        <g id="그룹_1521" data-name="그룹 1521" transform="translate(40.794 39.691)">
          <circle id="타원_15" data-name="타원 15" cx="20" cy="20" r="20" transform="translate(-0.126 0.132)"/>
          <g id="그룹_1520" data-name="그룹 1520" transform="translate(9.304 8.81)">
            <path id="합치기_1" data-name="합치기 1" d="M4.235,6V6H3.2A3.2,3.2,0,0,1,0,2.8,2.8,2.8,0,0,1,2.8,0H5.27a3.2,3.2,0,0,1,3.2,3.2v.079c1.207.092,2.556.161,3.885.161,1.228,0,2.438-.059,3.524-.14V3.2a3.2,3.2,0,0,1,3.2-3.2h2.47a2.8,2.8,0,0,1,2.8,2.8,3.2,3.2,0,0,1-3.2,3.2H20.084a59.909,59.909,0,0,1-7.818.582A64.614,64.614,0,0,1,4.235,6Z" transform="translate(4.658) rotate(45)" fill="#fff"/>
          </g>
        </g>
      </g>
    </g>
    <g id="사각형_2483" data-name="사각형 2483" transform="translate(5091 -351)" fill="none" stroke="#000" stroke-width="4">
      <rect width="155" height="335" rx="12" stroke="none"/>
      <rect x="2" y="2" width="151" height="331" rx="10" fill="none"/>
    </g>
  </g>
</svg>
